<?xml version="1.0" encoding="UTF-8" standalone="no"?><!DOCTYPE svg PUBLIC "-//W3C//DTD SVG 1.1//EN" "http://www.w3.org/Graphics/SVG/1.1/DTD/svg11.dtd"><!-- Generated by graphviz version 2.40.1 (20161225.0304)
 --><!-- Title: G Pages: 1 --><svg xmlns="http://www.w3.org/2000/svg" xmlns:xlink="http://www.w3.org/1999/xlink" width="305pt" height="860pt" viewBox="0.00 0.00 305.34 860.00">
<g id="graph0" class="graph" transform="scale(1 1) rotate(0) translate(4 856)">
<title>G</title>
<polygon fill="#ffffff" stroke="transparent" points="-4,4 -4,-856 301.3391,-856 301.3391,4 -4,4"/>
<g id="clust1" class="cluster">
<title>cluster_f</title>
<polygon fill="none" stroke="#000000" stroke-dasharray="5,2" points="15.3391,-8 15.3391,-844 289.3391,-844 289.3391,-8 15.3391,-8"/>
<text text-anchor="middle" x="152.3391" y="-827.4" font-family="Times,serif" font-size="14.00" fill="#000000">f ()</text>
</g>
<!-- fn_0_basic_block_0 -->
<g id="node1" class="node">
<title>fn_0_basic_block_0</title>
<polygon fill="#ffffff" stroke="#000000" points="110.3391,-811.2 49.0991,-793.2 110.3391,-775.2 171.5791,-793.2 110.3391,-811.2"/>
<polyline fill="none" stroke="#000000" points="60.6121,-796.584 60.6121,-789.816 "/>
<polyline fill="none" stroke="#000000" points="98.8261,-778.584 121.8521,-778.584 "/>
<polyline fill="none" stroke="#000000" points="160.0661,-789.816 160.0661,-796.584 "/>
<polyline fill="none" stroke="#000000" points="121.8521,-807.816 98.8261,-807.816 "/>
<text text-anchor="middle" x="110.3391" y="-789" font-family="Times,serif" font-size="14.00" fill="#000000">ENTRY</text>
</g>
<!-- fn_0_basic_block_1 -->
<g id="node2" class="node">
<title>fn_0_basic_block_1</title>
<polygon fill="#ffffff" stroke="#000000" points="162.3391,-52 115.4393,-34 162.3391,-16 209.2389,-34 162.3391,-52"/>
<polyline fill="none" stroke="#000000" points="126.6425,-38.2998 126.6425,-29.7002 "/>
<polyline fill="none" stroke="#000000" points="151.1359,-20.2998 173.5423,-20.2998 "/>
<polyline fill="none" stroke="#000000" points="198.0357,-29.7002 198.0357,-38.2998 "/>
<polyline fill="none" stroke="#000000" points="173.5423,-47.7002 151.1359,-47.7002 "/>
<text text-anchor="middle" x="162.3391" y="-29.8" font-family="Times,serif" font-size="14.00" fill="#000000">EXIT</text>
</g>
<!-- fn_0_basic_block_0&#45;&gt;fn_0_basic_block_1 -->
<!-- fn_0_basic_block_2 -->
<g id="node3" class="node">
<title>fn_0_basic_block_2</title>
<polygon fill="#d3d3d3" stroke="#000000" points="43.7064,-613.9 43.7064,-738.7 176.9718,-738.7 176.9718,-613.9 43.7064,-613.9"/>
<text text-anchor="start" x="51.7064" y="-722.1" font-family="Times,serif" font-size="14.00" fill="#000000">&lt;bb 2&gt;:</text>
<polyline fill="none" stroke="#000000" points="43.7064,-713.9 176.9718,-713.9 "/>
<text text-anchor="start" x="51.7064" y="-697.3" font-family="Times,serif" font-size="14.00" fill="#000000">a_6 = Z;</text>
<polyline fill="none" stroke="#000000" points="43.7064,-689.1 176.9718,-689.1 "/>
<text text-anchor="start" x="51.7064" y="-672.5" font-family="Times,serif" font-size="14.00" fill="#000000">if (a_6 &lt;= 9)</text>
<text text-anchor="start" x="51.7064" y="-655.7" font-family="Times,serif" font-size="14.00" fill="#000000">  goto &lt;bb 3&gt;; [INV]</text>
<text text-anchor="start" x="51.7064" y="-638.9" font-family="Times,serif" font-size="14.00" fill="#000000">else</text>
<text text-anchor="start" x="51.7064" y="-622.1" font-family="Times,serif" font-size="14.00" fill="#000000">  goto &lt;bb 4&gt;; [INV]</text>
</g>
<!-- fn_0_basic_block_0&#45;&gt;fn_0_basic_block_2 -->
<g id="edge1" class="edge">
<title>fn_0_basic_block_0:s-&gt;fn_0_basic_block_2:n</title>
<path fill="none" stroke="#0000ff" stroke-width="2" d="M110.3391,-775.2C110.3391,-762.7719 110.3391,-757.4074 110.3391,-748.4007"/>
<polygon fill="#0000ff" stroke="#0000ff" stroke-width="2" points="113.8392,-748.3 110.3391,-738.3 106.8392,-748.3 113.8392,-748.3"/>
</g>
<!-- fn_0_basic_block_3 -->
<g id="node4" class="node">
<title>fn_0_basic_block_3</title>
<polygon fill="#d3d3d3" stroke="#000000" points="43.2064,-299.1 43.2064,-390.3 169.4718,-390.3 169.4718,-299.1 43.2064,-299.1"/>
<text text-anchor="start" x="51.2064" y="-373.7" font-family="Times,serif" font-size="14.00" fill="#000000">&lt;bb 3&gt;:</text>
<polyline fill="none" stroke="#000000" points="43.2064,-365.5 169.4718,-365.5 "/>
<text text-anchor="start" x="51.2064" y="-348.9" font-family="Times,serif" font-size="14.00" fill="#000000">b_10 = 5;</text>
<polyline fill="none" stroke="#000000" points="43.2064,-340.7 169.4718,-340.7 "/>
<text text-anchor="start" x="51.2064" y="-324.1" font-family="Times,serif" font-size="14.00" fill="#000000">c_11 = 17;</text>
<text text-anchor="start" x="51.2064" y="-307.3" font-family="Times,serif" font-size="14.00" fill="#000000">goto &lt;bb 6&gt;; [INV]</text>
</g>
<!-- fn_0_basic_block_2&#45;&gt;fn_0_basic_block_3 -->
<g id="edge2" class="edge">
<title>fn_0_basic_block_2:s-&gt;fn_0_basic_block_3:n</title>
<path fill="none" stroke="#000000" stroke-width="2" d="M110.3391,-614.3C110.3391,-518.4006 106.6154,-491.9305 106.3536,-400.9129"/>
<polygon fill="#000000" stroke="#000000" stroke-width="2" points="109.8534,-400.695 106.3391,-390.7 102.8534,-400.705 109.8534,-400.695"/>
</g>
<!-- fn_0_basic_block_4 -->
<g id="node5" class="node">
<title>fn_0_basic_block_4</title>
<polygon fill="#d3d3d3" stroke="#000000" points="147.7064,-427.3 147.7064,-576.9 280.9718,-576.9 280.9718,-427.3 147.7064,-427.3"/>
<text text-anchor="start" x="155.7064" y="-560.3" font-family="Times,serif" font-size="14.00" fill="#000000">&lt;bb 4&gt;:</text>
<polyline fill="none" stroke="#000000" points="147.7064,-552.1 280.9718,-552.1 "/>
<text text-anchor="start" x="155.7064" y="-535.5" font-family="Times,serif" font-size="14.00" fill="#000000">b_7 = 6;</text>
<polyline fill="none" stroke="#000000" points="147.7064,-527.3 280.9718,-527.3 "/>
<text text-anchor="start" x="155.7064" y="-510.7" font-family="Times,serif" font-size="14.00" fill="#000000">c_8 = 20;</text>
<polyline fill="none" stroke="#000000" points="147.7064,-502.5 280.9718,-502.5 "/>
<text text-anchor="start" x="155.7064" y="-485.9" font-family="Times,serif" font-size="14.00" fill="#000000">if (a_6 == 0)</text>
<text text-anchor="start" x="155.7064" y="-469.1" font-family="Times,serif" font-size="14.00" fill="#000000">  goto &lt;bb 5&gt;; [INV]</text>
<text text-anchor="start" x="155.7064" y="-452.3" font-family="Times,serif" font-size="14.00" fill="#000000">else</text>
<text text-anchor="start" x="155.7064" y="-435.5" font-family="Times,serif" font-size="14.00" fill="#000000">  goto &lt;bb 6&gt;; [INV]</text>
</g>
<!-- fn_0_basic_block_2&#45;&gt;fn_0_basic_block_4 -->
<g id="edge3" class="edge">
<title>fn_0_basic_block_2:s-&gt;fn_0_basic_block_4:n</title>
<path fill="none" stroke="#000000" stroke-width="2" d="M110.3391,-614.3C110.3391,-569.2368 197.9764,-616.9263 212.3544,-587.0803"/>
<polygon fill="#000000" stroke="#000000" stroke-width="2" points="215.8214,-587.5906 214.3391,-577.1 208.9558,-586.2253 215.8214,-587.5906"/>
</g>
<!-- fn_0_basic_block_6 -->
<g id="node7" class="node">
<title>fn_0_basic_block_6</title>
<polygon fill="#d3d3d3" stroke="#000000" points="43.7405,-88.5 43.7405,-262.1 280.9377,-262.1 280.9377,-88.5 43.7405,-88.5"/>
<text text-anchor="start" x="51.7405" y="-245.5" font-family="Times,serif" font-size="14.00" fill="#000000">&lt;bb 6&gt;:</text>
<polyline fill="none" stroke="#000000" points="43.7405,-237.3 280.9377,-237.3 "/>
<text text-anchor="start" x="51.7405" y="-220.7" font-family="Times,serif" font-size="14.00" fill="#000000"># b_3 = PHI &lt;b_10(3), b_7(4), b_7(5)&gt;</text>
<polyline fill="none" stroke="#000000" points="43.7405,-212.5 280.9377,-212.5 "/>
<text text-anchor="start" x="51.7405" y="-195.9" font-family="Times,serif" font-size="14.00" fill="#000000"># c_4 = PHI &lt;c_11(3), c_8(4), c_9(5)&gt;</text>
<polyline fill="none" stroke="#000000" points="43.7405,-187.7 280.9377,-187.7 "/>
<text text-anchor="start" x="51.7405" y="-171.1" font-family="Times,serif" font-size="14.00" fill="#000000">_1 = b_3 * 10;</text>
<polyline fill="none" stroke="#000000" points="43.7405,-162.9 280.9377,-162.9 "/>
<text text-anchor="start" x="51.7405" y="-146.3" font-family="Times,serif" font-size="14.00" fill="#000000">_2 = c_4 + _1;</text>
<polyline fill="none" stroke="#000000" points="43.7405,-138.1 280.9377,-138.1 "/>
<text text-anchor="start" x="51.7405" y="-121.5" font-family="Times,serif" font-size="14.00" fill="#000000">Z = _2;</text>
<polyline fill="none" stroke="#000000" points="43.7405,-113.3 280.9377,-113.3 "/>
<text text-anchor="start" x="51.7405" y="-96.7" font-family="Times,serif" font-size="14.00" fill="#000000">return;</text>
</g>
<!-- fn_0_basic_block_3&#45;&gt;fn_0_basic_block_6 -->
<g id="edge4" class="edge">
<title>fn_0_basic_block_3:s-&gt;fn_0_basic_block_6:n</title>
<path fill="none" stroke="#0000ff" stroke-width="2" d="M106.3391,-298.7C106.3391,-273.1898 147.6965,-286.5658 159.3283,-271.9923"/>
<polygon fill="#0000ff" stroke="#0000ff" stroke-width="2" points="162.7149,-272.8882 162.3391,-262.3 156.03,-270.8115 162.7149,-272.8882"/>
</g>
<!-- fn_0_basic_block_5 -->
<g id="node6" class="node">
<title>fn_0_basic_block_5</title>
<polygon fill="#d3d3d3" stroke="#000000" points="187.3392,-319.9 187.3392,-369.5 249.339,-369.5 249.339,-319.9 187.3392,-319.9"/>
<text text-anchor="start" x="195.3392" y="-352.9" font-family="Times,serif" font-size="14.00" fill="#000000">&lt;bb 5&gt;:</text>
<polyline fill="none" stroke="#000000" points="187.3392,-344.7 249.339,-344.7 "/>
<text text-anchor="start" x="195.3392" y="-328.1" font-family="Times,serif" font-size="14.00" fill="#000000">c_9 = 0;</text>
</g>
<!-- fn_0_basic_block_4&#45;&gt;fn_0_basic_block_5 -->
<g id="edge5" class="edge">
<title>fn_0_basic_block_4:s-&gt;fn_0_basic_block_5:n</title>
<path fill="none" stroke="#000000" stroke-width="2" d="M214.3391,-427.1C214.3391,-405.323 217.2397,-397.5553 218.1009,-379.9373"/>
<polygon fill="#000000" stroke="#000000" stroke-width="2" points="221.6054,-379.7788 218.3391,-369.7 214.6073,-379.6158 221.6054,-379.7788"/>
</g>
<!-- fn_0_basic_block_4&#45;&gt;fn_0_basic_block_6 -->
<g id="edge6" class="edge">
<title>fn_0_basic_block_4:s-&gt;fn_0_basic_block_6:n</title>
<path fill="none" stroke="#000000" stroke-width="2" d="M214.3391,-427.1C214.3391,-401.7484 247.5294,-413.7315 258.3391,-390.8 275.8116,-353.734 281.6337,-332.3126 258.3391,-298.6 234.7381,-264.444 174.5734,-300.179 163.9531,-272.484"/>
<polygon fill="#000000" stroke="#000000" stroke-width="2" points="167.3613,-271.6289 162.3391,-262.3 160.4476,-272.7246 167.3613,-271.6289"/>
</g>
<!-- fn_0_basic_block_5&#45;&gt;fn_0_basic_block_6 -->
<g id="edge7" class="edge">
<title>fn_0_basic_block_5:s-&gt;fn_0_basic_block_6:n</title>
<path fill="none" stroke="#0000ff" stroke-width="2" d="M218.3391,-319.7C218.3391,-287.9573 173.9192,-295.4967 164.2023,-272.347"/>
<polygon fill="#0000ff" stroke="#0000ff" stroke-width="2" points="167.6039,-271.4941 162.3391,-262.3 160.7213,-272.7706 167.6039,-271.4941"/>
</g>
<!-- fn_0_basic_block_6&#45;&gt;fn_0_basic_block_1 -->
<g id="edge8" class="edge">
<title>fn_0_basic_block_6:s-&gt;fn_0_basic_block_1:n</title>
<path fill="none" stroke="#000000" stroke-width="2" d="M162.3391,-88.3C162.3391,-76.2 162.3391,-70.9063 162.3391,-62.2094"/>
<polygon fill="#000000" stroke="#000000" stroke-width="2" points="165.8392,-62 162.3391,-52 158.8392,-62 165.8392,-62"/>
</g>
</g>
</svg>